<svg
  class="companly-svg"
  version="1.1"
  xmlns="http://www.w3.org/2000/svg"
  xmlns:xlink="http://www.w3.org/1999/xlink"
  width="400"
  height="128.47503373819163"
  viewBox="0, 0, 400,128.47503373819163"
>
  <g class="lines">
    <path
      class="path"
      id="companly-path"
      stroke-width="4"
      d="M329.112 19.568 C 328.487 20.028,327.932 21.880,327.374 25.371 C 326.203 32.702,323.950 40.861,318.502 57.490 C 312.983 74.335,312.269 77.215,312.777 80.598 C 313.634 86.316,319.099 88.987,324.719 86.435 C 329.546 84.242,332.013 78.321,327.800 79.039 C 320.804 80.232,320.834 79.847,329.848 52.901 C 338.452 27.180,339.220 23.347,336.344 20.471 C 334.600 18.728,330.888 18.264,329.112 19.568 M42.347 25.049 C 17.235 32.914,3.071 77.832,23.068 86.187 C 31.967 89.905,48.583 84.707,48.583 78.205 C 48.583 74.041,46.289 73.517,42.068 76.716 C 31.141 84.998,24.831 82.190,24.831 69.045 C 24.831 52.282,38.722 30.229,49.281 30.229 C 55.825 30.229,52.963 38.853,43.860 46.565 C 41.642 48.444,41.656 49.321,43.941 51.606 C 52.204 59.869,66.175 39.144,59.109 29.105 C 55.986 24.666,48.980 22.971,42.347 25.049 M79.845 45.350 C 60.418 48.637,49.991 81.815,66.845 86.715 C 68.968 87.332,70.875 87.490,73.383 87.256 C 94.420 85.291,105.706 49.011,86.418 45.353 C 83.244 44.751,83.384 44.751,79.845 45.350 M112.551 45.307 C 108.526 46.280,107.626 47.982,109.671 50.748 C 111.490 53.208,108.902 62.074,101.919 77.310 C 98.967 83.752,98.987 84.442,102.194 86.397 C 106.315 88.909,107.593 87.949,111.926 79.082 C 115.622 71.521,119.208 66.578,126.533 58.948 C 136.344 48.729,136.752 51.335,128.198 69.561 C 121.720 83.361,121.467 84.987,125.532 86.685 C 129.746 88.446,130.603 87.809,133.945 80.432 C 137.989 71.509,146.519 58.894,151.417 54.594 C 155.258 51.221,155.385 53.923,151.736 61.385 C 145.079 74.999,144.295 82.898,149.277 86.162 C 154.046 89.287,162.272 85.942,163.374 80.430 C 163.748 78.562,162.254 78.240,158.878 79.461 C 154.665 80.984,155.190 76.670,160.618 65.185 C 166.101 53.584,166.302 48.996,161.449 46.202 C 156.021 43.077,151.815 45.261,142.836 55.870 L 141.465 57.490 141.988 55.604 C 145.849 41.668,131.269 41.591,121.513 55.497 C 119.909 57.782,119.612 57.455,120.642 54.537 C 122.415 49.511,121.307 46.492,117.277 45.373 C 115.031 44.750,114.863 44.747,112.551 45.307 M179.330 45.317 C 175.569 46.248,174.604 48.239,176.832 50.467 C 178.051 51.686,178.180 52.146,177.858 54.136 C 176.618 61.790,168.345 90.902,164.920 99.662 C 162.291 106.385,162.303 107.755,164.997 108.982 C 170.292 111.395,172.754 108.033,177.606 91.768 C 178.536 88.650,179.406 85.763,179.538 85.352 C 179.740 84.727,179.934 84.738,180.713 85.418 C 188.951 92.611,208.066 79.487,211.562 64.238 C 215.356 47.694,202.686 38.785,190.863 49.683 L 188.394 51.959 188.394 49.975 C 188.394 47.968,186.400 45.344,184.874 45.344 C 184.509 45.344,183.512 45.239,182.659 45.110 C 181.805 44.982,180.307 45.075,179.330 45.317 M239.546 45.561 C 228.855 47.858,218.643 61.758,218.487 74.224 C 218.317 87.738,230.516 92.060,239.623 81.714 C 241.488 79.595,241.835 79.385,241.835 80.377 C 241.835 87.918,253.323 89.899,257.895 83.146 C 260.248 79.670,259.676 78.626,255.655 79.057 C 249.078 79.761,249.646 74.798,258.298 55.968 L 261.974 47.968 260.893 46.888 C 258.608 44.603,253.795 44.706,252.006 47.078 L 251.084 48.299 249.465 47.103 C 248.147 46.128,244.052 44.728,242.915 44.863 C 242.767 44.880,241.251 45.194,239.546 45.561 M275.034 45.290 C 270.994 46.308,270.110 47.983,272.154 50.748 C 273.973 53.208,271.385 62.074,264.402 77.310 C 261.450 83.752,261.471 84.442,264.677 86.397 C 268.800 88.911,270.076 87.950,274.417 79.064 C 277.927 71.878,284.518 62.823,291.429 55.694 C 296.403 50.562,297.128 53.226,293.099 61.833 C 286.052 76.891,285.805 84.185,292.258 86.649 C 296.778 88.376,302.815 86.266,304.696 82.302 C 306.365 78.786,305.716 78.440,299.736 79.657 C 296.366 80.343,296.972 76.935,302.286 65.336 C 307.297 54.395,307.699 49.708,303.870 46.850 C 298.762 43.036,292.261 45.215,285.886 52.876 C 282.146 57.371,282.173 57.368,283.292 53.088 C 284.814 47.265,281.103 43.760,275.034 45.290 M348.475 45.396 C 344.695 46.311,343.229 48.672,345.544 50.118 C 347.341 51.240,346.657 54.315,342.388 64.302 C 336.335 78.465,335.835 81.692,339.175 85.032 C 344.000 89.857,352.016 87.093,359.379 78.062 C 363.269 73.292,363.318 73.339,361.079 79.714 C 356.911 91.585,350.062 100.836,343.190 103.875 C 338.312 106.032,339.267 109.042,344.829 109.042 C 356.420 109.042,364.990 96.400,377.393 61.004 C 382.708 45.834,382.692 45.484,376.659 45.221 C 373.343 45.077,373.187 45.253,367.528 55.532 C 361.021 67.349,359.112 70.118,353.772 75.490 C 346.706 82.598,345.974 80.904,351.084 69.266 C 354.770 60.873,357.895 52.162,357.895 50.283 C 357.895 46.349,353.646 44.144,348.475 45.396 M85.135 51.822 C 88.395 58.299,80.198 78.852,73.178 81.804 C 69.009 83.557,67.479 78.400,69.632 69.857 C 72.787 57.345,82.328 46.246,85.135 51.822 M246.341 52.497 L 247.445 53.983 246.209 57.896 C 240.807 74.985,228.850 87.428,228.889 75.919 C 228.936 62.067,241.210 45.595,246.341 52.497 M201.757 56.243 C 202.386 64.033,196.717 76.099,190.607 79.974 C 179.268 87.165,181.489 68.493,193.499 55.661 C 198.560 50.253,201.288 50.446,201.757 56.243 "
    />
    </g>
  </svg>